<svg width="19" height="19" viewBox="0 0 19 19" fill="none" xmlns="http://www.w3.org/2000/svg">
<path d="M14.971 5.14527C15.01 5.10622 15.01 5.0429 14.971 5.00385L13.9961 4.02902C13.9571 3.98997 13.8938 3.98997 13.8547 4.02902L9.57072 8.31302C9.53167 8.35207 9.46835 8.35207 9.4293 8.31302L5.1453 4.02902C5.10625 3.98997 5.04294 3.98997 5.00388 4.02902L4.02905 5.00385C3.99 5.0429 3.99 5.10622 4.02905 5.14527L8.31305 9.42927C8.3521 9.46832 8.3521 9.53164 8.31305 9.57069L4.02905 13.8547C3.99 13.8937 3.99 13.9571 4.02905 13.9961L5.00388 14.9709C5.04294 15.01 5.10625 15.01 5.1453 14.9709L9.4293 10.6869C9.46835 10.6479 9.53167 10.6479 9.57072 10.6869L13.8547 14.9709C13.8938 15.01 13.9571 15.01 13.9961 14.9709L14.971 13.9961C15.01 13.9571 15.01 13.8937 14.971 13.8547L10.687 9.57069C10.6479 9.53164 10.6479 9.46832 10.687 9.42927L14.971 5.14527Z" fill="white"/>
</svg>
