<svg width="19" height="19" viewBox="0 0 19 19" fill="none" xmlns="http://www.w3.org/2000/svg">
<path d="M14.971 5.1453C15.01 5.10625 15.01 5.04294 14.971 5.00388L13.9961 4.02905C13.9571 3.99 13.8938 3.99 13.8547 4.02905L9.57072 8.31305C9.53167 8.3521 9.46835 8.3521 9.4293 8.31305L5.1453 4.02905C5.10625 3.99 5.04294 3.99 5.00388 4.02905L4.02905 5.00388C3.99 5.04294 3.99 5.10625 4.02905 5.1453L8.31305 9.4293C8.3521 9.46835 8.3521 9.53167 8.31305 9.57072L4.02905 13.8547C3.99 13.8938 3.99 13.9571 4.02905 13.9961L5.00388 14.971C5.04294 15.01 5.10625 15.01 5.1453 14.971L9.4293 10.687C9.46835 10.6479 9.53167 10.6479 9.57072 10.687L13.8547 14.971C13.8938 15.01 13.9571 15.01 13.9961 14.971L14.971 13.9961C15.01 13.9571 15.01 13.8938 14.971 13.8547L10.687 9.57072C10.6479 9.53167 10.6479 9.46835 10.687 9.4293L14.971 5.1453Z" fill="white"/>
</svg>
