<svg width="12" height="12" viewBox="0 0 12 12" fill="none" xmlns="http://www.w3.org/2000/svg">
<path d="M8.79564 7.74016H8.23976L8.04273 7.55018C8.73231 6.74802 9.14747 5.70661 9.14747 4.57373C9.14747 2.04763 7.09984 0 4.57373 0C2.04763 0 0 2.04763 0 4.57373C0 7.09984 2.04763 9.14747 4.57373 9.14747C5.70661 9.14747 6.74802 8.73231 7.55018 8.04273L7.74016 8.23976V8.79564L10.7337 11.7832C11.0236 12.0725 11.493 12.0722 11.7826 11.7826V11.7826C12.0722 11.493 12.0725 11.0236 11.7832 10.7337L8.79564 7.74016ZM4.57373 7.74016C2.82164 7.74016 1.4073 6.32583 1.4073 4.57373C1.4073 2.82164 2.82164 1.4073 4.57373 1.4073C6.32583 1.4073 7.74016 2.82164 7.74016 4.57373C7.74016 6.32583 6.32583 7.74016 4.57373 7.74016Z" fill="#929292"/>
</svg>
