<svg width="14" height="14" viewBox="0 0 14 14" fill="none" xmlns="http://www.w3.org/2000/svg">
<path d="M12.0116 7.6825C12.0379 7.46375 12.0554 7.23625 12.0554 7C12.0554 6.76375 12.0379 6.53625 12.0029 6.3175L13.4816 5.1625C13.6129 5.0575 13.6479 4.865 13.5691 4.71625L12.1691 2.2925C12.0816 2.135 11.8979 2.0825 11.7404 2.135L9.99915 2.835C9.63165 2.555 9.24665 2.3275 8.8179 2.1525L8.5554 0.2975C8.52915 0.1225 8.3804 0 8.2054 0H5.4054C5.2304 0 5.0904 0.1225 5.06415 0.2975L4.80165 2.1525C4.3729 2.3275 3.97915 2.56375 3.6204 2.835L1.87915 2.135C1.72165 2.07375 1.5379 2.135 1.4504 2.2925L0.0503959 4.71625C-0.0371041 4.87375 -0.00210395 5.0575 0.137896 5.1625L1.61665 6.3175C1.58165 6.53625 1.5554 6.7725 1.5554 7C1.5554 7.2275 1.5729 7.46375 1.6079 7.6825L0.129146 8.8375C-0.00210416 8.9425 -0.0371041 9.135 0.0416459 9.28375L1.44165 11.7075C1.52915 11.865 1.7129 11.9175 1.8704 11.865L3.61165 11.165C3.97915 11.445 4.36415 11.6725 4.7929 11.8475L5.0554 13.7025C5.0904 13.8775 5.2304 14 5.4054 14H8.2054C8.3804 14 8.52915 13.8775 8.54665 13.7025L8.80915 11.8475C9.2379 11.6725 9.63165 11.4363 9.9904 11.165L11.7316 11.865C11.8891 11.9263 12.0729 11.865 12.1604 11.7075L13.5604 9.28375C13.6479 9.12625 13.6129 8.9425 13.4729 8.8375L12.0116 7.6825V7.6825ZM6.8054 9.625C5.36165 9.625 4.1804 8.44375 4.1804 7C4.1804 5.55625 5.36165 4.375 6.8054 4.375C8.24915 4.375 9.4304 5.55625 9.4304 7C9.4304 8.44375 8.24915 9.625 6.8054 9.625Z" fill="#333333"/>
</svg>
