<svg width="15" height="10" viewBox="0 0 15 10" fill="none" xmlns="http://www.w3.org/2000/svg">
<path d="M12.5202 2.89645C12.2052 3.21143 11.6667 2.98835 11.6667 2.54289V0.833333C11.6667 0.375 11.2917 0 10.8333 0H0.833333C0.375 0 0 0.375 0 0.833333V9.16667C0 9.625 0.375 10 0.833333 10H10.8333C11.2917 10 11.6667 9.625 11.6667 9.16667V7.45711C11.6667 7.01165 12.2052 6.78857 12.5202 7.10355L14.1464 8.72978C14.4614 9.04476 15 8.82168 15 8.37623V1.62377C15 1.17832 14.4614 0.955238 14.1464 1.27022L12.5202 2.89645ZM9.16667 5.33333C9.16667 5.60948 8.94281 5.83333 8.66667 5.83333H7.16667C6.89052 5.83333 6.66667 6.05719 6.66667 6.33333V7.83333C6.66667 8.10948 6.44281 8.33333 6.16667 8.33333H5.5C5.22386 8.33333 5 8.10948 5 7.83333V6.33333C5 6.05719 4.77614 5.83333 4.5 5.83333H3C2.72386 5.83333 2.5 5.60948 2.5 5.33333V4.66667C2.5 4.39052 2.72386 4.16667 3 4.16667H4.5C4.77614 4.16667 5 3.94281 5 3.66667V2.16667C5 1.89052 5.22386 1.66667 5.5 1.66667H6.16667C6.44281 1.66667 6.66667 1.89052 6.66667 2.16667V3.66667C6.66667 3.94281 6.89052 4.16667 7.16667 4.16667H8.66667C8.94281 4.16667 9.16667 4.39052 9.16667 4.66667V5.33333Z" fill="white"/>
</svg>
